<?xml version="1.0" standalone="no"?>
<!DOCTYPE svg PUBLIC "-//W3C//DTD SVG 20010904//EN"
 "http://www.w3.org/TR/2001/REC-SVG-20010904/DTD/svg10.dtd">
<svg version="1.0" xmlns="http://www.w3.org/2000/svg"
 width="200.000000pt" height="200.000000pt" viewBox="0 0 200.000000 200.000000"
 preserveAspectRatio="xMidYMid meet">
<metadata>
Created by potrace 1.11, written by Peter Selinger 2001-2013
</metadata>
<g transform="translate(0.000000,200.000000) scale(0.100000,-0.100000)"
fill="#000000" stroke="none">
<path d="M930 1731 c-125 -43 -248 -248 -311 -517 l-23 -99 -14 45 c-7 25 -17
80 -21 124 -6 65 -11 82 -30 97 -29 24 -36 24 -61 -1 -27 -27 -25 -56 6 -87
19 -19 34 -56 55 -132 15 -59 35 -123 44 -143 8 -21 15 -61 15 -90 -1 -53 -1
-53 -16 -25 -8 15 -19 27 -23 27 -19 0 -22 -154 -7 -257 19 -124 44 -192 93
-257 81 -106 189 -149 315 -128 52 9 80 9 113 1 58 -15 162 0 230 32 69 32
136 104 163 174 32 83 52 211 52 331 0 109 -5 120 -42 87 -17 -15 -18 -14 -18
31 0 31 9 65 29 104 16 31 41 86 56 122 15 36 38 76 51 89 38 37 28 98 -17
114 -39 13 -83 -58 -61 -100 7 -13 0 -38 -26 -93 l-35 -75 -23 104 c-26 114
-98 299 -145 373 -46 71 -122 135 -182 153 -66 19 -100 19 -167 -4z m168 -57
c43 -18 93 -63 131 -119 41 -59 109 -227 131 -319 44 -188 49 -429 10 -505
-25 -49 -108 -132 -207 -206 -44 -33 -95 -81 -113 -108 -18 -26 -38 -47 -44
-47 -6 0 -26 22 -44 49 -45 65 -124 143 -197 193 -33 23 -73 58 -90 77 l-30
35 1 161 c1 88 7 197 14 240 34 238 162 494 272 548 42 21 118 21 166 1z m367
-906 c-4 -24 -12 -51 -17 -62 -7 -13 -7 -16 1 -12 14 9 14 0 1 -44 -6 -19 -12
-52 -14 -72 -2 -21 -18 -63 -37 -93 -47 -79 -111 -125 -179 -131 -19 -1 -52
-6 -72 -10 -26 -4 -38 -3 -38 5 0 6 -3 10 -7 10 -27 -4 -33 2 -23 21 6 11 15
18 20 15 5 -3 12 0 16 6 4 8 3 9 -4 5 -17 -10 -15 3 3 20 8 9 20 12 26 8 7 -4
9 -3 5 4 -4 6 26 36 72 70 104 79 179 163 215 240 16 34 31 62 34 62 3 0 2
-19 -2 -42z m-751 -176 c89 -71 186 -162 186 -175 0 -6 8 -19 18 -30 16 -19
16 -20 0 -14 -10 4 -18 2 -18 -3 0 -6 5 -10 10 -10 6 0 10 -4 10 -10 0 -5 -23
-10 -51 -10 -72 0 -137 37 -182 104 -54 80 -70 115 -44 100 6 -4 5 1 -4 12
-22 28 -40 73 -45 118 l-5 39 27 -32 c15 -18 59 -58 98 -89z"/>
<path d="M800 1295 c-19 -23 -8 -50 23 -53 32 -4 44 16 27 47 -13 24 -33 27
-50 6z"/>
<path d="M1174 1286 c-10 -26 4 -46 31 -46 23 0 26 4 23 28 -3 31 -44 45 -54
18z"/>
<path d="M921 1171 c-11 -7 -14 -30 -13 -92 4 -140 31 -199 90 -199 57 0 92
80 92 212 l0 78 -27 0 c-16 0 -50 3 -78 6 -27 3 -56 1 -64 -5z m139 -46 c0
-12 -13 -15 -60 -15 -47 0 -60 3 -60 15 0 12 13 15 60 15 47 0 60 -3 60 -15z
m-10 -102 c0 -19 -7 -51 -16 -70 -30 -63 -78 -28 -86 61 -2 34 1 42 21 52 17
9 32 9 52 2 25 -8 29 -15 29 -45z"/>
<path d="M1204 474 c-18 -14 -18 -15 4 -4 12 6 22 13 22 15 0 8 -5 6 -26 -11z"/>
<path d="M817 469 c7 -7 15 -10 18 -7 3 3 -2 9 -12 12 -14 6 -15 5 -6 -5z"/>
<path d="M810 436 c0 -2 7 -7 16 -10 8 -3 12 -2 9 4 -6 10 -25 14 -25 6z"/>
</g>
</svg>
